---
title: 庄学忠《福建热门金曲1》WAV+CUE
date: 2022-04-19 09:16:56
categories: 闽南语(台语)
tags: 国语流行
---
# 庄学忠《福建热门金曲1》[WAV+CUE]

REM DISCID
B80C840D
REM COMMENT "ExactAudioCopy
v1.1"
PERFORMER "庄学忠"
TITLE "福建热门金曲 1"
FILE "庄学忠 - 福建热门金曲 1.wav"
WAVE
TRACK 01
AUDIO
TITLE "回乡的我"
PERFORMER "庄学忠"
INDEX 00 00:00:00
INDEX 01 00:00:30
TRACK 02
AUDIO
TITLE "今夜我要饮乎醉"
PERFORMER "庄学忠"
INDEX 00 03:33:47
INDEX 01 03:36:46
TRACK 03
AUDIO
TITLE "浪子泪"
PERFORMER "庄学忠"
INDEX 00 07:25:33
INDEX 01 07:28:32
TRACK 04
AUDIO
TITLE "爱情一阵风"
PERFORMER "庄学忠"
INDEX 00 11:23:56
INDEX 01 11:26:55
TRACK 05
AUDIO
TITLE "心所爱的人"
PERFORMER "庄学忠"
INDEX 00 15:17:11
INDEX 01 15:20:10
TRACK 06
AUDIO
TITLE "初恋"
PERFORMER "庄学忠"
INDEX 00 19:28:15
INDEX 01 19:31:14
TRACK 07
AUDIO
TITLE "又搁天黑黑"
PERFORMER "庄学忠"
INDEX 00 22:58:65
INDEX 01 23:01:64
TRACK 08
AUDIO
TITLE "输人不输阵/舞伴"
PERFORMER "庄学忠"
INDEX 00 26:40:64
INDEX 01 26:43:63
TRACK 09
AUDIO
TITLE "浪子的心情/爱拼才会赢/成功的条件"
PERFORMER "庄学忠"
INDEX 00 32:19:31
INDEX 01 32:22:30
TRACK 10
AUDIO
TITLE "买醉"
PERFORMER "庄学忠"
INDEX 00 39:06:48
INDEX 01 39:09:47
TRACK 11
AUDIO
TITLE "金包银"
PERFORMER "庄学忠"
INDEX 00 42:22:35
INDEX 01 42:25:34
TRACK 12
AUDIO
TITLE "惊惊未着顶"
PERFORMER "庄学忠"
INDEX 00 45:49:30
INDEX 01 45:52:29
TRACK 13
AUDIO
TITLE "千万声不应该"
PERFORMER "庄学忠"
INDEX 00 49:39:28
INDEX 01 49:42:27
下载地址：
庄学忠《福建热门金曲 1》[WAV+CUE].zip: https://url27.ctfile.com/f/9388027-512109291-b60863
（访问密码：559675）
庄学忠
https://url27.ctfile.com/d/9388027-43778604-33285a
（访问密码：559675）
群星WAV专辑
https://u9388027.pipipan.com/dir/9388027-19437416-e1200b/
DTS多声道
https://u9388027.pipipan.com/dir/9388027-29465289-23b8e6/
大陆歌星
https://u9388027.pipipan.com/dir/9388027-30247779-b5e4a2/
港台歌星
https://u9388027.pipipan.com/dir/9388027-30073965-6d48e1/
电音、dj,、舞曲、
https://u9388027.pipipan.com/dir/9388027-17571203-2fc860/
试音发烧碟
https://u9388027.pipipan.com/dir/9388027-29424388-d42865/
雨果唱片系列
https://u9388027.pipipan.com/dir/9388027-29904760-64d658/
网络流行歌曲
https://u9388027.pipipan.com/dir/9388027-29193281-b00759/
城通网盘快速找到想要专辑的方法：
在城通网盘专辑文件夹中的升级会员下的有搜索两字，
在搜索空格里输入文件名或关键字，马上找到。
原文：[链接](https://blog.sina.com.cn/s/blog_1647c7e7601030wqh.html)